<svg width="90" height="84" viewBox="0 0 90 84" fill="none" xmlns="http://www.w3.org/2000/svg">
<ellipse cx="44.7713" cy="41.9957" rx="44.4959" ry="41.1695" fill="black" fill-opacity="0.28"/>
<path d="M88.7672 41.9957C88.7672 64.421 69.1069 82.6652 44.7713 82.6652C20.4357 82.6652 0.77533 64.421 0.77533 41.9957C0.77533 19.5705 20.4357 1.32629 44.7713 1.32629C69.1069 1.32629 88.7672 19.5705 88.7672 41.9957Z" stroke="#A8A6A6" stroke-opacity="0.35"/>
<g filter="url(#filter0_i_23_20)">
<path d="M68.9708 41.2606C68.9708 34.8263 66.339 28.6555 61.6543 24.1058C56.9696 19.556 50.6158 17 43.9906 17C37.3655 17 31.0117 19.556 26.327 24.1058C21.6423 28.6555 19.0105 34.8263 19.0105 41.2606L35.528 41.2606C35.528 39.0808 36.4196 36.9903 38.0066 35.4489C39.5937 33.9076 41.7462 33.0417 43.9906 33.0417C46.2351 33.0417 48.3876 33.9076 49.9747 35.4489C51.5617 36.9903 52.4533 39.0808 52.4533 41.2606H68.9708Z" fill="white"/>
</g>
<path d="M68.9708 41.2606C68.9708 34.8263 66.339 28.6555 61.6543 24.1058C56.9696 19.556 50.6158 17 43.9906 17C37.3655 17 31.0117 19.556 26.327 24.1058C21.6423 28.6555 19.0105 34.8263 19.0105 41.2606L35.528 41.2606C35.528 39.0808 36.4196 36.9903 38.0066 35.4489C39.5937 33.9076 41.7462 33.0417 43.9906 33.0417C46.2351 33.0417 48.3876 33.9076 49.9747 35.4489C51.5617 36.9903 52.4533 39.0808 52.4533 41.2606H68.9708Z" stroke="#787171"/>
<g filter="url(#filter1_i_23_20)">
<path d="M19.0105 42.7043C19.0027 49.1386 21.6272 55.3121 26.3064 59.8669C30.9856 64.4216 37.3363 66.9844 43.9615 66.9915C50.5866 66.9985 56.9435 64.4493 61.6337 59.9046C66.3238 55.3598 68.9631 49.1919 68.9708 42.7576L52.4543 42.7399C52.4517 44.92 51.5574 47.0098 49.9683 48.5496C48.3793 50.0894 46.2255 50.9531 43.9808 50.9507C41.7361 50.9483 39.5843 50.08 37.999 48.5368C36.4136 46.9936 35.5244 44.9019 35.527 42.7219L19.0105 42.7043Z" fill="white"/>
</g>
<path d="M19.0105 42.7043C19.0027 49.1386 21.6272 55.3121 26.3064 59.8669C30.9856 64.4216 37.3363 66.9844 43.9615 66.9915C50.5866 66.9985 56.9435 64.4493 61.6337 59.9046C66.3238 55.3598 68.9631 49.1919 68.9708 42.7576L52.4543 42.7399C52.4517 44.92 51.5574 47.0098 49.9683 48.5496C48.3793 50.0894 46.2255 50.9531 43.9808 50.9507C41.7361 50.9483 39.5843 50.08 37.999 48.5368C36.4136 46.9936 35.5244 44.9019 35.527 42.7219L19.0105 42.7043Z" stroke="#787171"/>
<g filter="url(#filter2_i_23_20)">
<ellipse cx="43.9906" cy="41.9957" rx="4.68378" ry="4.41101" fill="#FFF5F5"/>
</g>
<path d="M48.6744 41.9957C48.6744 44.4319 46.5774 46.4068 43.9906 46.4068C41.4038 46.4068 44.7713 42.7309 44.7713 42.7309C45.5519 39.7902 41.4038 37.5847 43.9906 37.5847C46.5774 37.5847 48.6744 39.5596 48.6744 41.9957Z" fill="white"/>
<defs>
<filter id="filter0_i_23_20" x="18.5105" y="16.5" width="50.9604" height="29.2606" filterUnits="userSpaceOnUse" color-interpolation-filters="sRGB">
<feFlood flood-opacity="0" result="BackgroundImageFix"/>
<feBlend mode="normal" in="SourceGraphic" in2="BackgroundImageFix" result="shape"/>
<feColorMatrix in="SourceAlpha" type="matrix" values="0 0 0 0 0 0 0 0 0 0 0 0 0 0 0 0 0 0 127 0" result="hardAlpha"/>
<feOffset dy="4"/>
<feGaussianBlur stdDeviation="2"/>
<feComposite in2="hardAlpha" operator="arithmetic" k2="-1" k3="1"/>
<feColorMatrix type="matrix" values="0 0 0 0 0 0 0 0 0 0 0 0 0 0 0 0 0 0 0.25 0"/>
<feBlend mode="normal" in2="shape" result="effect1_innerShadow_23_20"/>
</filter>
<filter id="filter1_i_23_20" x="18.5105" y="42.2037" width="50.9609" height="29.2878" filterUnits="userSpaceOnUse" color-interpolation-filters="sRGB">
<feFlood flood-opacity="0" result="BackgroundImageFix"/>
<feBlend mode="normal" in="SourceGraphic" in2="BackgroundImageFix" result="shape"/>
<feColorMatrix in="SourceAlpha" type="matrix" values="0 0 0 0 0 0 0 0 0 0 0 0 0 0 0 0 0 0 127 0" result="hardAlpha"/>
<feOffset dy="4"/>
<feGaussianBlur stdDeviation="2"/>
<feComposite in2="hardAlpha" operator="arithmetic" k2="-1" k3="1"/>
<feColorMatrix type="matrix" values="0 0 0 0 0 0 0 0 0 0 0 0 0 0 0 0 0 0 0.25 0"/>
<feBlend mode="normal" in2="shape" result="effect1_innerShadow_23_20"/>
</filter>
<filter id="filter2_i_23_20" x="39.3069" y="37.5847" width="9.36757" height="12.822" filterUnits="userSpaceOnUse" color-interpolation-filters="sRGB">
<feFlood flood-opacity="0" result="BackgroundImageFix"/>
<feBlend mode="normal" in="SourceGraphic" in2="BackgroundImageFix" result="shape"/>
<feColorMatrix in="SourceAlpha" type="matrix" values="0 0 0 0 0 0 0 0 0 0 0 0 0 0 0 0 0 0 127 0" result="hardAlpha"/>
<feOffset dy="4"/>
<feGaussianBlur stdDeviation="2"/>
<feComposite in2="hardAlpha" operator="arithmetic" k2="-1" k3="1"/>
<feColorMatrix type="matrix" values="0 0 0 0 0 0 0 0 0 0 0 0 0 0 0 0 0 0 0.25 0"/>
<feBlend mode="normal" in2="shape" result="effect1_innerShadow_23_20"/>
</filter>
</defs>
</svg>
